<svg xmlns="http://www.w3.org/2000/svg" xmlns:xlink="http://www.w3.org/1999/xlink" width="500" zoomAndPan="magnify" viewBox="0 0 375 374.999991" height="500" preserveAspectRatio="xMidYMid meet" version="1.0"><defs><g/><clipPath id="id1"><path d="M 105.933594 172.386719 L 276.183594 172.386719 L 276.183594 192.636719 L 105.933594 192.636719 Z M 105.933594 172.386719 " clip-rule="nonzero"/></clipPath></defs><g fill="#ff1616" fill-opacity="0.4"><g transform="translate(126.107622, 183.59226)"><g><path d="M 21.683594 -39.523438 L 21.683594 -43.796875 C 21.683594 -60.460938 24.355469 -69.753906 35.464844 -69.753906 L 36.425781 -69.753906 C 45.507812 -69.753906 47.964844 -63.132812 47.964844 -51.703125 L 65.269531 -51.703125 L 65.269531 -55.546875 C 65.269531 -76.378906 55.226562 -84.710938 35.464844 -84.710938 C 13.78125 -84.710938 4.167969 -72.640625 4.167969 -43.796875 L 4.167969 -39.523438 C 4.167969 -10.683594 13.78125 1.390625 35.464844 1.390625 C 55.226562 1.390625 65.269531 -6.945312 65.269531 -27.453125 L 65.269531 -28.414062 L 47.964844 -28.414062 C 47.964844 -19.441406 44.867188 -13.566406 36.425781 -13.566406 L 35.464844 -13.566406 C 24.355469 -13.566406 21.683594 -22.859375 21.683594 -39.523438 Z M 21.683594 -39.523438 "/></g></g></g><g fill="#ff1616" fill-opacity="1"><g transform="translate(121.386397, 178.87104)"><g><path d="M 21.683594 -39.523438 L 21.683594 -43.796875 C 21.683594 -60.460938 24.355469 -69.753906 35.464844 -69.753906 L 36.425781 -69.753906 C 45.507812 -69.753906 47.964844 -63.132812 47.964844 -51.703125 L 65.269531 -51.703125 L 65.269531 -55.546875 C 65.269531 -76.378906 55.226562 -84.710938 35.464844 -84.710938 C 13.78125 -84.710938 4.167969 -72.640625 4.167969 -43.796875 L 4.167969 -39.523438 C 4.167969 -10.683594 13.78125 1.390625 35.464844 1.390625 C 55.226562 1.390625 65.269531 -6.945312 65.269531 -27.453125 L 65.269531 -28.414062 L 47.964844 -28.414062 C 47.964844 -19.441406 44.867188 -13.566406 36.425781 -13.566406 L 35.464844 -13.566406 C 24.355469 -13.566406 21.683594 -22.859375 21.683594 -39.523438 Z M 21.683594 -39.523438 "/></g></g></g><g fill="#373737" fill-opacity="0.4"><g transform="translate(190.352497, 226.482436)"><g><path d="M 23.289062 -29.910156 L 32.152344 -29.910156 L 43.582031 0 L 62.277344 0 L 49.136719 -32.367188 C 56.617188 -35.464844 62.277344 -42.089844 62.277344 -55.546875 L 62.277344 -57.683594 C 62.277344 -79.796875 46.894531 -83.320312 33.328125 -83.320312 L 5.980469 -83.320312 L 5.980469 0 L 23.289062 0 Z M 23.289062 -44.867188 L 23.289062 -68.367188 L 34.078125 -68.367188 C 38.777344 -68.367188 44.757812 -66.550781 44.757812 -57.148438 L 44.757812 -56.082031 C 44.757812 -46.679688 38.777344 -44.867188 34.078125 -44.867188 Z M 23.289062 -44.867188 "/></g></g></g><g fill="#373737" fill-opacity="1"><g transform="translate(185.631277, 221.761217)"><g><path d="M 23.289062 -29.910156 L 32.152344 -29.910156 L 43.582031 0 L 62.277344 0 L 49.136719 -32.367188 C 56.617188 -35.464844 62.277344 -42.089844 62.277344 -55.546875 L 62.277344 -57.683594 C 62.277344 -79.796875 46.894531 -83.320312 33.328125 -83.320312 L 5.980469 -83.320312 L 5.980469 0 L 23.289062 0 Z M 23.289062 -44.867188 L 23.289062 -68.367188 L 34.078125 -68.367188 C 38.777344 -68.367188 44.757812 -66.550781 44.757812 -57.148438 L 44.757812 -56.082031 C 44.757812 -46.679688 38.777344 -44.867188 34.078125 -44.867188 Z M 23.289062 -44.867188 "/></g></g></g><g clip-path="url(#id1)"><path fill="#ffffff" d="M 105.949219 172.386719 L 276.164062 172.386719 L 276.164062 192.636719 L 105.949219 192.636719 L 105.949219 172.386719 " fill-opacity="1" fill-rule="nonzero"/></g><g fill="#373737" fill-opacity="1"><g transform="translate(112.541811, 186.948079)"><g><path d="M 1.453125 -8.921875 L 5.09375 -8.921875 C 6.03125 -8.921875 6.859375 -8.734375 7.578125 -8.359375 C 8.304688 -7.984375 8.867188 -7.457031 9.265625 -6.78125 C 9.671875 -6.101562 9.875 -5.332031 9.875 -4.46875 C 9.875 -3.59375 9.671875 -2.816406 9.265625 -2.140625 C 8.867188 -1.472656 8.304688 -0.945312 7.578125 -0.5625 C 6.859375 -0.1875 6.03125 0 5.09375 0 L 1.453125 0 Z M 5.03125 -0.8125 C 5.8125 -0.8125 6.492188 -0.96875 7.078125 -1.28125 C 7.671875 -1.59375 8.128906 -2.019531 8.453125 -2.5625 C 8.773438 -3.113281 8.9375 -3.75 8.9375 -4.46875 C 8.9375 -5.175781 8.773438 -5.800781 8.453125 -6.34375 C 8.128906 -6.894531 7.671875 -7.328125 7.078125 -7.640625 C 6.492188 -7.953125 5.8125 -8.109375 5.03125 -8.109375 L 2.390625 -8.109375 L 2.390625 -0.8125 Z M 5.03125 -0.8125 "/></g></g></g><g fill="#373737" fill-opacity="1"><g transform="translate(131.987157, 186.948079)"><g><path d="M 7.765625 -0.8125 L 7.765625 0 L 1.453125 0 L 1.453125 -8.921875 L 7.578125 -8.921875 L 7.578125 -8.109375 L 2.390625 -8.109375 L 2.390625 -4.9375 L 7.015625 -4.9375 L 7.015625 -4.125 L 2.390625 -4.125 L 2.390625 -0.8125 Z M 7.765625 -0.8125 "/></g></g></g><g fill="#373737" fill-opacity="1"><g transform="translate(149.432591, 186.948079)"><g><path d="M 8.875 -8.921875 L 4.921875 0 L 3.984375 0 L 0.03125 -8.921875 L 1.0625 -8.921875 L 4.46875 -1.171875 L 7.921875 -8.921875 Z M 8.875 -8.921875 "/></g></g></g><g fill="#373737" fill-opacity="1"><g transform="translate(167.247427, 186.948079)"><g><path d="M 7.765625 -0.8125 L 7.765625 0 L 1.453125 0 L 1.453125 -8.921875 L 7.578125 -8.921875 L 7.578125 -8.109375 L 2.390625 -8.109375 L 2.390625 -4.9375 L 7.015625 -4.9375 L 7.015625 -4.125 L 2.390625 -4.125 L 2.390625 -0.8125 Z M 7.765625 -0.8125 "/></g></g></g><g fill="#373737" fill-opacity="1"><g transform="translate(184.692863, 186.948079)"><g><path d="M 1.453125 -8.921875 L 2.390625 -8.921875 L 2.390625 -0.8125 L 7.390625 -0.8125 L 7.390625 0 L 1.453125 0 Z M 1.453125 -8.921875 "/></g></g></g><g fill="#373737" fill-opacity="1"><g transform="translate(201.119224, 186.948079)"><g><path d="M 5.359375 0.078125 C 4.472656 0.078125 3.671875 -0.117188 2.953125 -0.515625 C 2.234375 -0.910156 1.671875 -1.453125 1.265625 -2.140625 C 0.859375 -2.828125 0.65625 -3.601562 0.65625 -4.46875 C 0.65625 -5.320312 0.859375 -6.09375 1.265625 -6.78125 C 1.671875 -7.46875 2.234375 -8.007812 2.953125 -8.40625 C 3.671875 -8.800781 4.472656 -9 5.359375 -9 C 6.242188 -9 7.039062 -8.800781 7.75 -8.40625 C 8.457031 -8.019531 9.015625 -7.476562 9.421875 -6.78125 C 9.828125 -6.09375 10.03125 -5.320312 10.03125 -4.46875 C 10.03125 -3.601562 9.828125 -2.820312 9.421875 -2.125 C 9.015625 -1.4375 8.457031 -0.894531 7.75 -0.5 C 7.039062 -0.113281 6.242188 0.078125 5.359375 0.078125 Z M 5.359375 -0.765625 C 6.054688 -0.765625 6.691406 -0.921875 7.265625 -1.234375 C 7.835938 -1.554688 8.285156 -2 8.609375 -2.5625 C 8.929688 -3.132812 9.09375 -3.769531 9.09375 -4.46875 C 9.09375 -5.164062 8.929688 -5.796875 8.609375 -6.359375 C 8.285156 -6.921875 7.835938 -7.359375 7.265625 -7.671875 C 6.691406 -7.992188 6.054688 -8.15625 5.359375 -8.15625 C 4.648438 -8.15625 4.007812 -7.992188 3.4375 -7.671875 C 2.863281 -7.359375 2.410156 -6.921875 2.078125 -6.359375 C 1.753906 -5.796875 1.59375 -5.164062 1.59375 -4.46875 C 1.59375 -3.769531 1.753906 -3.132812 2.078125 -2.5625 C 2.410156 -2 2.863281 -1.554688 3.4375 -1.234375 C 4.007812 -0.921875 4.648438 -0.765625 5.359375 -0.765625 Z M 5.359375 -0.765625 "/></g></g></g><g fill="#373737" fill-opacity="1"><g transform="translate(220.730174, 186.948079)"><g><path d="M 4.796875 -8.921875 C 5.929688 -8.921875 6.820312 -8.648438 7.46875 -8.109375 C 8.113281 -7.566406 8.4375 -6.816406 8.4375 -5.859375 C 8.4375 -4.910156 8.113281 -4.164062 7.46875 -3.625 C 6.820312 -3.082031 5.929688 -2.8125 4.796875 -2.8125 L 2.390625 -2.8125 L 2.390625 0 L 1.453125 0 L 1.453125 -8.921875 Z M 4.765625 -3.640625 C 5.648438 -3.640625 6.328125 -3.832031 6.796875 -4.21875 C 7.265625 -4.613281 7.5 -5.160156 7.5 -5.859375 C 7.5 -6.585938 7.265625 -7.144531 6.796875 -7.53125 C 6.328125 -7.914062 5.648438 -8.109375 4.765625 -8.109375 L 2.390625 -8.109375 L 2.390625 -3.640625 Z M 4.765625 -3.640625 "/></g></g></g><g fill="#373737" fill-opacity="1"><g transform="translate(238.799776, 186.948079)"><g><path d="M 7.765625 -0.8125 L 7.765625 0 L 1.453125 0 L 1.453125 -8.921875 L 7.578125 -8.921875 L 7.578125 -8.109375 L 2.390625 -8.109375 L 2.390625 -4.9375 L 7.015625 -4.9375 L 7.015625 -4.125 L 2.390625 -4.125 L 2.390625 -0.8125 Z M 7.765625 -0.8125 "/></g></g></g><g fill="#373737" fill-opacity="1"><g transform="translate(256.245205, 186.948079)"><g><path d="M 7.546875 0 L 5.515625 -2.875 C 5.273438 -2.84375 5.035156 -2.828125 4.796875 -2.828125 L 2.390625 -2.828125 L 2.390625 0 L 1.453125 0 L 1.453125 -8.921875 L 4.796875 -8.921875 C 5.929688 -8.921875 6.820312 -8.648438 7.46875 -8.109375 C 8.113281 -7.566406 8.4375 -6.816406 8.4375 -5.859375 C 8.4375 -5.160156 8.257812 -4.570312 7.90625 -4.09375 C 7.550781 -3.613281 7.050781 -3.269531 6.40625 -3.0625 L 8.578125 0 Z M 4.765625 -3.640625 C 5.648438 -3.640625 6.328125 -3.832031 6.796875 -4.21875 C 7.265625 -4.613281 7.5 -5.160156 7.5 -5.859375 C 7.5 -6.585938 7.265625 -7.144531 6.796875 -7.53125 C 6.328125 -7.914062 5.648438 -8.109375 4.765625 -8.109375 L 2.390625 -8.109375 L 2.390625 -3.640625 Z M 4.765625 -3.640625 "/></g></g></g></svg>