<svg xmlns="http://www.w3.org/2000/svg" xmlns:xlink="http://www.w3.org/1999/xlink" width="500" zoomAndPan="magnify" viewBox="0 0 375 374.999991" height="500" preserveAspectRatio="xMidYMid meet" version="1.0"><defs><g/><clipPath id="id1"><path d="M 301.710938 142.960938 L 361.710938 142.960938 L 361.710938 202.960938 L 301.710938 202.960938 Z M 301.710938 142.960938 " clip-rule="nonzero"/></clipPath></defs><g clip-path="url(#id1)"><path fill="#ff1616" d="M 361.710938 196.292969 C 361.710938 199.972656 358.726562 202.960938 355.046875 202.960938 L 308.378906 202.960938 C 304.695312 202.960938 301.710938 199.972656 301.710938 196.292969 L 301.710938 149.625 C 301.710938 145.945312 304.695312 142.960938 308.378906 142.960938 L 355.046875 142.960938 C 358.726562 142.960938 361.710938 145.945312 361.710938 149.625 Z M 361.710938 196.292969 " fill-opacity="1" fill-rule="nonzero"/></g><path fill="#ffffff" d="M 331.710938 151.292969 L 318.378906 151.292969 L 318.378906 157.960938 L 331.726562 157.960938 C 338.160156 157.96875 343.378906 163.1875 343.378906 169.625 C 343.378906 176.066406 338.152344 181.292969 331.710938 181.292969 L 325.046875 181.292969 L 325.046875 174.625 L 313.046875 184.625 L 325.046875 194.625 L 325.046875 187.960938 L 331.710938 187.960938 C 341.835938 187.960938 350.046875 179.75 350.046875 169.625 C 350.046875 159.5 341.835938 151.292969 331.710938 151.292969 Z M 331.710938 151.292969 " fill-opacity="1" fill-rule="nonzero"/><g fill="#000000" fill-opacity="0.4"><g transform="translate(6.925929, 203.853478)"><g><path d="M 49.898438 -1.523438 L 48.984375 -2.257812 C 48.007812 -3.050781 47.152344 -4.027344 46.484375 -5.125 L 38.917969 -17.203125 C 38.675781 -17.566406 38.550781 -17.996094 38.675781 -18.484375 C 38.796875 -18.910156 39.039062 -19.277344 39.46875 -19.582031 C 40.992188 -20.679688 42.335938 -21.898438 43.433594 -23.300781 C 45.078125 -25.316406 46.359375 -27.632812 47.214844 -30.195312 C 48.070312 -32.757812 48.558594 -35.441406 48.558594 -38.246094 C 48.558594 -41.054688 48.070312 -43.796875 47.214844 -46.359375 C 46.359375 -48.921875 45.078125 -51.242188 43.433594 -53.316406 C 41.480469 -55.632812 39.101562 -57.460938 36.417969 -58.742188 C 33.671875 -59.964844 30.683594 -60.636719 27.511719 -60.636719 L 8.234375 -60.636719 C 7.808594 -60.636719 7.503906 -60.453125 7.382812 -60.085938 C 7.199219 -59.71875 7.257812 -59.414062 7.5625 -59.109375 C 8.539062 -58.011719 9.089844 -56.730469 9.089844 -55.265625 L 9.089844 -5.246094 C 9.089844 -3.84375 8.601562 -2.621094 7.6875 -1.585938 C 7.320312 -1.21875 7.257812 -0.914062 7.441406 -0.550781 C 7.5625 -0.183594 7.867188 0 8.355469 0 L 22.019531 0 C 22.386719 0 22.691406 -0.121094 22.8125 -0.488281 C 22.9375 -0.855469 22.9375 -1.160156 22.691406 -1.523438 C 21.65625 -2.621094 21.167969 -3.84375 21.167969 -5.308594 L 21.167969 -14.214844 C 21.167969 -14.703125 21.289062 -15.128906 21.65625 -15.496094 C 22.019531 -15.859375 22.449219 -16.042969 22.9375 -16.042969 L 24.398438 -16.042969 C 25.011719 -16.042969 25.558594 -15.738281 25.925781 -15.1875 L 33.429688 -3.109375 C 33.734375 -2.5625 33.671875 -2.074219 33.304688 -1.585938 L 33.246094 -1.523438 C 33 -1.160156 33 -0.855469 33.183594 -0.488281 C 33.304688 -0.121094 33.613281 0 34.039062 0 L 49.472656 0 C 49.898438 0 50.144531 -0.183594 50.265625 -0.550781 C 50.386719 -0.914062 50.265625 -1.21875 49.898438 -1.523438 Z M 34.097656 -30.988281 C 32.574219 -29.035156 30.378906 -28.121094 27.511719 -28.121094 L 22.9375 -28.121094 C 22.449219 -28.121094 22.019531 -28.242188 21.65625 -28.609375 C 21.289062 -28.976562 21.167969 -29.402344 21.167969 -29.890625 L 21.167969 -46.726562 C 21.167969 -47.214844 21.289062 -47.640625 21.65625 -48.007812 C 22.019531 -48.375 22.449219 -48.558594 22.9375 -48.558594 L 27.511719 -48.558594 C 29.707031 -48.558594 31.355469 -48.070312 32.574219 -47.09375 C 33.792969 -46.117188 34.648438 -45.019531 35.257812 -43.796875 C 35.808594 -42.578125 36.171875 -41.417969 36.296875 -40.320312 C 36.417969 -39.222656 36.480469 -38.492188 36.480469 -38.246094 C 36.480469 -36.785156 36.234375 -35.441406 35.867188 -34.222656 C 35.441406 -33 34.832031 -31.902344 34.097656 -30.988281 Z M 34.097656 -30.988281 "/></g></g></g><g fill="#000000" fill-opacity="0.4"><g transform="translate(64.563454, 203.853478)"><g><path d="M 44.410156 -61.0625 C 43.371094 -60.085938 42.152344 -59.660156 40.808594 -59.660156 L 8.296875 -59.660156 C 7.867188 -59.660156 7.5625 -59.476562 7.441406 -59.109375 C 7.257812 -58.742188 7.257812 -58.4375 7.503906 -58.132812 L 7.6875 -57.949219 C 8.664062 -56.851562 9.148438 -55.570312 9.148438 -54.109375 L 9.148438 -4.574219 C 9.148438 -3.84375 9.027344 -3.171875 8.785156 -2.5 C 8.539062 -1.828125 8.175781 -1.21875 7.6875 -0.730469 L 7.503906 -0.550781 C 7.257812 -0.183594 7.257812 0.121094 7.441406 0.488281 C 7.5625 0.855469 7.867188 0.976562 8.296875 0.976562 L 40.808594 0.976562 C 42.152344 0.976562 43.371094 1.464844 44.410156 2.378906 C 44.714844 2.683594 45.078125 2.746094 45.445312 2.5625 C 45.8125 2.441406 46.054688 2.136719 46.054688 1.648438 L 46.054688 -11.957031 C 46.054688 -12.320312 45.871094 -12.628906 45.507812 -12.808594 C 45.140625 -12.933594 44.773438 -12.871094 44.53125 -12.628906 C 43.433594 -11.589844 42.152344 -11.101562 40.6875 -11.101562 L 22.753906 -11.101562 C 22.328125 -11.101562 21.960938 -11.222656 21.65625 -11.527344 C 21.351562 -11.773438 21.226562 -12.140625 21.226562 -12.628906 L 21.226562 -21.777344 C 21.226562 -22.203125 21.351562 -22.570312 21.65625 -22.875 C 21.960938 -23.121094 22.328125 -23.300781 22.753906 -23.300781 L 28.121094 -23.300781 C 29.585938 -23.300781 30.867188 -22.753906 31.964844 -21.777344 C 32.269531 -21.535156 32.574219 -21.535156 32.941406 -21.714844 C 33.304688 -21.898438 33.488281 -22.203125 33.488281 -22.570312 L 33.488281 -36.113281 C 33.488281 -36.480469 33.304688 -36.722656 32.941406 -36.90625 C 32.574219 -37.089844 32.269531 -37.089844 31.964844 -36.90625 C 30.867188 -35.867188 29.585938 -35.378906 28.121094 -35.378906 L 22.753906 -35.378906 C 22.328125 -35.378906 21.960938 -35.503906 21.65625 -35.808594 C 21.351562 -36.050781 21.226562 -36.417969 21.226562 -36.90625 L 21.226562 -46.054688 C 21.226562 -46.484375 21.351562 -46.847656 21.65625 -47.152344 C 21.960938 -47.398438 22.328125 -47.582031 22.753906 -47.582031 L 40.6875 -47.582031 C 42.152344 -47.582031 43.433594 -47.03125 44.53125 -46.054688 C 44.773438 -45.75 45.140625 -45.691406 45.507812 -45.871094 C 45.871094 -45.996094 46.054688 -46.300781 46.054688 -46.726562 L 46.054688 -60.390625 C 46.054688 -60.757812 45.8125 -61.0625 45.445312 -61.246094 C 45.078125 -61.367188 44.714844 -61.304688 44.410156 -61.0625 Z M 44.410156 -61.0625 "/></g></g></g><g fill="#000000" fill-opacity="0.4"><g transform="translate(117.93153, 203.853478)"><g><path d="M 80.214844 -60.636719 L 67.101562 -60.636719 L 67.101562 -60.574219 L 67.101562 -60.636719 L 65.941406 -60.636719 C 65.515625 -60.636719 65.210938 -60.453125 65.089844 -60.085938 C 64.90625 -59.71875 64.90625 -59.414062 65.148438 -59.109375 L 65.394531 -58.867188 C 66.003906 -58.132812 66.1875 -57.402344 65.941406 -56.546875 L 55.875 -21.714844 C 55.753906 -21.351562 55.511719 -21.167969 55.144531 -21.167969 C 54.777344 -21.167969 54.535156 -21.351562 54.414062 -21.714844 L 50.019531 -37.027344 C 49.714844 -37.882812 49.898438 -38.675781 50.570312 -39.34375 L 50.691406 -39.46875 C 50.875 -39.773438 50.875 -40.078125 50.691406 -40.445312 C 50.507812 -40.75 50.203125 -40.929688 49.835938 -40.929688 L 34.953125 -40.929688 C 34.585938 -40.929688 34.28125 -40.75 34.097656 -40.445312 C 33.917969 -40.078125 33.917969 -39.773438 34.160156 -39.46875 L 34.28125 -39.34375 C 34.890625 -38.613281 35.074219 -37.882812 34.832031 -37.027344 L 30.4375 -21.714844 C 30.316406 -21.351562 30.074219 -21.167969 29.707031 -21.167969 C 29.28125 -21.167969 29.035156 -21.351562 28.976562 -21.714844 L 18.910156 -56.546875 C 18.667969 -57.402344 18.847656 -58.132812 19.460938 -58.867188 L 19.703125 -59.109375 C 19.886719 -59.414062 19.886719 -59.71875 19.765625 -60.085938 C 19.582031 -60.453125 19.277344 -60.636719 18.910156 -60.636719 L 4.636719 -60.636719 C 4.210938 -60.636719 3.902344 -60.453125 3.78125 -60.085938 C 3.597656 -59.71875 3.597656 -59.414062 3.84375 -59.109375 C 5.429688 -57.644531 6.527344 -55.816406 7.136719 -53.742188 L 21.535156 -3.964844 C 21.777344 -3.050781 21.535156 -2.257812 20.921875 -1.523438 C 20.679688 -1.160156 20.679688 -0.855469 20.863281 -0.488281 C 21.046875 -0.121094 21.351562 0 21.714844 0 L 37.636719 0 C 38.003906 0 38.246094 -0.121094 38.429688 -0.488281 C 38.613281 -0.855469 38.613281 -1.160156 38.429688 -1.523438 L 38.371094 -1.523438 C 37.757812 -2.136719 37.578125 -2.929688 37.820312 -3.84375 L 41.664062 -17.140625 C 41.785156 -17.507812 42.03125 -17.691406 42.394531 -17.691406 C 42.761719 -17.691406 43.066406 -17.507812 43.1875 -17.140625 L 46.96875 -3.902344 C 47.214844 -2.988281 47.03125 -2.195312 46.421875 -1.585938 L 46.359375 -1.523438 C 46.117188 -1.160156 46.117188 -0.855469 46.300781 -0.488281 C 46.484375 -0.121094 46.789062 0 47.152344 0 L 63.195312 0 C 63.5625 0 63.867188 -0.121094 63.988281 -0.488281 C 64.113281 -0.855469 64.113281 -1.160156 63.867188 -1.523438 C 63.195312 -2.136719 63.015625 -2.929688 63.320312 -3.78125 L 77.714844 -53.804688 C 78.019531 -54.777344 78.445312 -55.753906 78.996094 -56.667969 C 79.484375 -57.585938 80.15625 -58.378906 81.007812 -59.109375 C 81.191406 -59.414062 81.191406 -59.71875 81.070312 -60.085938 C 80.886719 -60.453125 80.582031 -60.636719 80.214844 -60.636719 Z M 80.214844 -60.636719 "/></g></g></g><g fill="#000000" fill-opacity="0.4"><g transform="translate(202.771529, 203.853478)"><g><path d="M 21.105469 -5.367188 L 21.105469 -55.265625 C 21.105469 -56.730469 21.59375 -58.011719 22.570312 -59.109375 C 22.753906 -59.414062 22.753906 -59.71875 22.632812 -60.085938 C 22.449219 -60.453125 22.144531 -60.636719 21.777344 -60.636719 L 8.296875 -60.636719 C 7.867188 -60.636719 7.5625 -60.453125 7.441406 -60.085938 C 7.257812 -59.71875 7.257812 -59.414062 7.503906 -59.109375 C 8.480469 -58.011719 9.027344 -56.730469 9.027344 -55.265625 L 9.027344 -5.367188 C 9.027344 -3.902344 8.480469 -2.621094 7.503906 -1.523438 C 7.257812 -1.160156 7.257812 -0.855469 7.441406 -0.488281 C 7.5625 -0.121094 7.867188 0 8.296875 0 L 21.777344 0 C 22.144531 0 22.449219 -0.121094 22.632812 -0.488281 C 22.753906 -0.855469 22.753906 -1.160156 22.570312 -1.523438 C 22.082031 -2.011719 21.714844 -2.621094 21.472656 -3.292969 C 21.226562 -3.964844 21.105469 -4.636719 21.105469 -5.367188 Z M 21.105469 -5.367188 "/></g></g></g><g fill="#000000" fill-opacity="0.4"><g transform="translate(232.901627, 203.853478)"><g><path d="M 56.851562 -1.523438 L 56.792969 -1.585938 C 55.816406 -2.5625 55.390625 -3.78125 55.390625 -5.246094 L 55.390625 -55.390625 C 55.390625 -56.792969 55.816406 -58.011719 56.792969 -59.050781 L 56.851562 -59.109375 C 57.035156 -59.414062 57.035156 -59.71875 56.914062 -60.085938 C 56.730469 -60.453125 56.425781 -60.636719 56.058594 -60.636719 L 42.578125 -60.636719 C 42.152344 -60.636719 41.847656 -60.453125 41.726562 -60.085938 C 41.542969 -59.71875 41.542969 -59.414062 41.785156 -59.109375 L 41.847656 -59.050781 C 42.761719 -58.011719 43.25 -56.792969 43.25 -55.390625 L 43.25 -25.070312 C 43.25 -24.828125 43.128906 -24.644531 42.882812 -24.582031 C 42.640625 -24.523438 42.457031 -24.582031 42.335938 -24.828125 L 23.242188 -56.914062 C 22.753906 -57.644531 22.875 -58.378906 23.484375 -59.109375 C 23.667969 -59.414062 23.667969 -59.71875 23.546875 -60.085938 C 23.363281 -60.453125 23.058594 -60.636719 22.691406 -60.636719 L 21.046875 -60.636719 L 21.046875 -60.574219 L 21.046875 -60.636719 L 8.296875 -60.636719 C 7.867188 -60.636719 7.5625 -60.453125 7.441406 -60.085938 C 7.257812 -59.71875 7.257812 -59.414062 7.503906 -59.109375 C 8.480469 -58.011719 8.96875 -56.792969 8.96875 -55.449219 L 8.96875 -5.183594 C 8.96875 -3.78125 8.480469 -2.5625 7.503906 -1.523438 C 7.257812 -1.160156 7.257812 -0.855469 7.441406 -0.488281 C 7.5625 -0.121094 7.867188 0 8.296875 0 L 21.777344 0 C 22.144531 0 22.449219 -0.121094 22.632812 -0.488281 C 22.753906 -0.855469 22.753906 -1.160156 22.570312 -1.523438 L 22.449219 -1.648438 C 21.472656 -2.621094 21.046875 -3.84375 21.046875 -5.308594 L 21.046875 -35.5625 C 21.046875 -35.808594 21.105469 -35.929688 21.351562 -35.992188 C 21.59375 -36.050781 21.777344 -35.992188 21.960938 -35.808594 L 41.113281 -3.660156 C 41.480469 -2.867188 41.417969 -2.136719 40.871094 -1.523438 C 40.625 -1.160156 40.625 -0.855469 40.808594 -0.488281 C 40.929688 -0.121094 41.238281 0 41.664062 0 L 56.058594 0 C 56.425781 0 56.730469 -0.121094 56.914062 -0.488281 C 57.035156 -0.855469 57.035156 -1.160156 56.851562 -1.523438 Z M 56.851562 -1.523438 "/></g></g></g><g fill="#000000" fill-opacity="1"><g transform="translate(10.736514, 203.720412)"><g><path d="M 49.898438 -1.523438 L 48.984375 -2.257812 C 48.007812 -3.050781 47.152344 -4.027344 46.484375 -5.125 L 38.917969 -17.203125 C 38.675781 -17.566406 38.550781 -17.996094 38.675781 -18.484375 C 38.796875 -18.910156 39.039062 -19.277344 39.46875 -19.582031 C 40.992188 -20.679688 42.335938 -21.898438 43.433594 -23.300781 C 45.078125 -25.316406 46.359375 -27.632812 47.214844 -30.195312 C 48.070312 -32.757812 48.558594 -35.441406 48.558594 -38.246094 C 48.558594 -41.054688 48.070312 -43.796875 47.214844 -46.359375 C 46.359375 -48.921875 45.078125 -51.242188 43.433594 -53.316406 C 41.480469 -55.632812 39.101562 -57.460938 36.417969 -58.742188 C 33.671875 -59.964844 30.683594 -60.636719 27.511719 -60.636719 L 8.234375 -60.636719 C 7.808594 -60.636719 7.503906 -60.453125 7.382812 -60.085938 C 7.199219 -59.71875 7.257812 -59.414062 7.5625 -59.109375 C 8.539062 -58.011719 9.089844 -56.730469 9.089844 -55.265625 L 9.089844 -5.246094 C 9.089844 -3.84375 8.601562 -2.621094 7.6875 -1.585938 C 7.320312 -1.21875 7.257812 -0.914062 7.441406 -0.550781 C 7.5625 -0.183594 7.867188 0 8.355469 0 L 22.019531 0 C 22.386719 0 22.691406 -0.121094 22.8125 -0.488281 C 22.9375 -0.855469 22.9375 -1.160156 22.691406 -1.523438 C 21.65625 -2.621094 21.167969 -3.84375 21.167969 -5.308594 L 21.167969 -14.214844 C 21.167969 -14.703125 21.289062 -15.128906 21.65625 -15.496094 C 22.019531 -15.859375 22.449219 -16.042969 22.9375 -16.042969 L 24.398438 -16.042969 C 25.011719 -16.042969 25.558594 -15.738281 25.925781 -15.1875 L 33.429688 -3.109375 C 33.734375 -2.5625 33.671875 -2.074219 33.304688 -1.585938 L 33.246094 -1.523438 C 33 -1.160156 33 -0.855469 33.183594 -0.488281 C 33.304688 -0.121094 33.613281 0 34.039062 0 L 49.472656 0 C 49.898438 0 50.144531 -0.183594 50.265625 -0.550781 C 50.386719 -0.914062 50.265625 -1.21875 49.898438 -1.523438 Z M 34.097656 -30.988281 C 32.574219 -29.035156 30.378906 -28.121094 27.511719 -28.121094 L 22.9375 -28.121094 C 22.449219 -28.121094 22.019531 -28.242188 21.65625 -28.609375 C 21.289062 -28.976562 21.167969 -29.402344 21.167969 -29.890625 L 21.167969 -46.726562 C 21.167969 -47.214844 21.289062 -47.640625 21.65625 -48.007812 C 22.019531 -48.375 22.449219 -48.558594 22.9375 -48.558594 L 27.511719 -48.558594 C 29.707031 -48.558594 31.355469 -48.070312 32.574219 -47.09375 C 33.792969 -46.117188 34.648438 -45.019531 35.257812 -43.796875 C 35.808594 -42.578125 36.171875 -41.417969 36.296875 -40.320312 C 36.417969 -39.222656 36.480469 -38.492188 36.480469 -38.246094 C 36.480469 -36.785156 36.234375 -35.441406 35.867188 -34.222656 C 35.441406 -33 34.832031 -31.902344 34.097656 -30.988281 Z M 34.097656 -30.988281 "/></g></g></g><g fill="#000000" fill-opacity="1"><g transform="translate(68.374039, 203.720412)"><g><path d="M 44.410156 -61.0625 C 43.371094 -60.085938 42.152344 -59.660156 40.808594 -59.660156 L 8.296875 -59.660156 C 7.867188 -59.660156 7.5625 -59.476562 7.441406 -59.109375 C 7.257812 -58.742188 7.257812 -58.4375 7.503906 -58.132812 L 7.6875 -57.949219 C 8.664062 -56.851562 9.148438 -55.570312 9.148438 -54.109375 L 9.148438 -4.574219 C 9.148438 -3.84375 9.027344 -3.171875 8.785156 -2.5 C 8.539062 -1.828125 8.175781 -1.21875 7.6875 -0.730469 L 7.503906 -0.550781 C 7.257812 -0.183594 7.257812 0.121094 7.441406 0.488281 C 7.5625 0.855469 7.867188 0.976562 8.296875 0.976562 L 40.808594 0.976562 C 42.152344 0.976562 43.371094 1.464844 44.410156 2.378906 C 44.714844 2.683594 45.078125 2.746094 45.445312 2.5625 C 45.8125 2.441406 46.054688 2.136719 46.054688 1.648438 L 46.054688 -11.957031 C 46.054688 -12.320312 45.871094 -12.628906 45.507812 -12.808594 C 45.140625 -12.933594 44.773438 -12.871094 44.53125 -12.628906 C 43.433594 -11.589844 42.152344 -11.101562 40.6875 -11.101562 L 22.753906 -11.101562 C 22.328125 -11.101562 21.960938 -11.222656 21.65625 -11.527344 C 21.351562 -11.773438 21.226562 -12.140625 21.226562 -12.628906 L 21.226562 -21.777344 C 21.226562 -22.203125 21.351562 -22.570312 21.65625 -22.875 C 21.960938 -23.121094 22.328125 -23.300781 22.753906 -23.300781 L 28.121094 -23.300781 C 29.585938 -23.300781 30.867188 -22.753906 31.964844 -21.777344 C 32.269531 -21.535156 32.574219 -21.535156 32.941406 -21.714844 C 33.304688 -21.898438 33.488281 -22.203125 33.488281 -22.570312 L 33.488281 -36.113281 C 33.488281 -36.480469 33.304688 -36.722656 32.941406 -36.90625 C 32.574219 -37.089844 32.269531 -37.089844 31.964844 -36.90625 C 30.867188 -35.867188 29.585938 -35.378906 28.121094 -35.378906 L 22.753906 -35.378906 C 22.328125 -35.378906 21.960938 -35.503906 21.65625 -35.808594 C 21.351562 -36.050781 21.226562 -36.417969 21.226562 -36.90625 L 21.226562 -46.054688 C 21.226562 -46.484375 21.351562 -46.847656 21.65625 -47.152344 C 21.960938 -47.398438 22.328125 -47.582031 22.753906 -47.582031 L 40.6875 -47.582031 C 42.152344 -47.582031 43.433594 -47.03125 44.53125 -46.054688 C 44.773438 -45.75 45.140625 -45.691406 45.507812 -45.871094 C 45.871094 -45.996094 46.054688 -46.300781 46.054688 -46.726562 L 46.054688 -60.390625 C 46.054688 -60.757812 45.8125 -61.0625 45.445312 -61.246094 C 45.078125 -61.367188 44.714844 -61.304688 44.410156 -61.0625 Z M 44.410156 -61.0625 "/></g></g></g><g fill="#000000" fill-opacity="1"><g transform="translate(121.742115, 203.720412)"><g><path d="M 80.214844 -60.636719 L 67.101562 -60.636719 L 67.101562 -60.574219 L 67.101562 -60.636719 L 65.941406 -60.636719 C 65.515625 -60.636719 65.210938 -60.453125 65.089844 -60.085938 C 64.90625 -59.71875 64.90625 -59.414062 65.148438 -59.109375 L 65.394531 -58.867188 C 66.003906 -58.132812 66.1875 -57.402344 65.941406 -56.546875 L 55.875 -21.714844 C 55.753906 -21.351562 55.511719 -21.167969 55.144531 -21.167969 C 54.777344 -21.167969 54.535156 -21.351562 54.414062 -21.714844 L 50.019531 -37.027344 C 49.714844 -37.882812 49.898438 -38.675781 50.570312 -39.34375 L 50.691406 -39.46875 C 50.875 -39.773438 50.875 -40.078125 50.691406 -40.445312 C 50.507812 -40.75 50.203125 -40.929688 49.835938 -40.929688 L 34.953125 -40.929688 C 34.585938 -40.929688 34.28125 -40.75 34.097656 -40.445312 C 33.917969 -40.078125 33.917969 -39.773438 34.160156 -39.46875 L 34.28125 -39.34375 C 34.890625 -38.613281 35.074219 -37.882812 34.832031 -37.027344 L 30.4375 -21.714844 C 30.316406 -21.351562 30.074219 -21.167969 29.707031 -21.167969 C 29.28125 -21.167969 29.035156 -21.351562 28.976562 -21.714844 L 18.910156 -56.546875 C 18.667969 -57.402344 18.847656 -58.132812 19.460938 -58.867188 L 19.703125 -59.109375 C 19.886719 -59.414062 19.886719 -59.71875 19.765625 -60.085938 C 19.582031 -60.453125 19.277344 -60.636719 18.910156 -60.636719 L 4.636719 -60.636719 C 4.210938 -60.636719 3.902344 -60.453125 3.78125 -60.085938 C 3.597656 -59.71875 3.597656 -59.414062 3.84375 -59.109375 C 5.429688 -57.644531 6.527344 -55.816406 7.136719 -53.742188 L 21.535156 -3.964844 C 21.777344 -3.050781 21.535156 -2.257812 20.921875 -1.523438 C 20.679688 -1.160156 20.679688 -0.855469 20.863281 -0.488281 C 21.046875 -0.121094 21.351562 0 21.714844 0 L 37.636719 0 C 38.003906 0 38.246094 -0.121094 38.429688 -0.488281 C 38.613281 -0.855469 38.613281 -1.160156 38.429688 -1.523438 L 38.371094 -1.523438 C 37.757812 -2.136719 37.578125 -2.929688 37.820312 -3.84375 L 41.664062 -17.140625 C 41.785156 -17.507812 42.03125 -17.691406 42.394531 -17.691406 C 42.761719 -17.691406 43.066406 -17.507812 43.1875 -17.140625 L 46.96875 -3.902344 C 47.214844 -2.988281 47.03125 -2.195312 46.421875 -1.585938 L 46.359375 -1.523438 C 46.117188 -1.160156 46.117188 -0.855469 46.300781 -0.488281 C 46.484375 -0.121094 46.789062 0 47.152344 0 L 63.195312 0 C 63.5625 0 63.867188 -0.121094 63.988281 -0.488281 C 64.113281 -0.855469 64.113281 -1.160156 63.867188 -1.523438 C 63.195312 -2.136719 63.015625 -2.929688 63.320312 -3.78125 L 77.714844 -53.804688 C 78.019531 -54.777344 78.445312 -55.753906 78.996094 -56.667969 C 79.484375 -57.585938 80.15625 -58.378906 81.007812 -59.109375 C 81.191406 -59.414062 81.191406 -59.71875 81.070312 -60.085938 C 80.886719 -60.453125 80.582031 -60.636719 80.214844 -60.636719 Z M 80.214844 -60.636719 "/></g></g></g><g fill="#000000" fill-opacity="1"><g transform="translate(206.582115, 203.720412)"><g><path d="M 21.105469 -5.367188 L 21.105469 -55.265625 C 21.105469 -56.730469 21.59375 -58.011719 22.570312 -59.109375 C 22.753906 -59.414062 22.753906 -59.71875 22.632812 -60.085938 C 22.449219 -60.453125 22.144531 -60.636719 21.777344 -60.636719 L 8.296875 -60.636719 C 7.867188 -60.636719 7.5625 -60.453125 7.441406 -60.085938 C 7.257812 -59.71875 7.257812 -59.414062 7.503906 -59.109375 C 8.480469 -58.011719 9.027344 -56.730469 9.027344 -55.265625 L 9.027344 -5.367188 C 9.027344 -3.902344 8.480469 -2.621094 7.503906 -1.523438 C 7.257812 -1.160156 7.257812 -0.855469 7.441406 -0.488281 C 7.5625 -0.121094 7.867188 0 8.296875 0 L 21.777344 0 C 22.144531 0 22.449219 -0.121094 22.632812 -0.488281 C 22.753906 -0.855469 22.753906 -1.160156 22.570312 -1.523438 C 22.082031 -2.011719 21.714844 -2.621094 21.472656 -3.292969 C 21.226562 -3.964844 21.105469 -4.636719 21.105469 -5.367188 Z M 21.105469 -5.367188 "/></g></g></g><g fill="#000000" fill-opacity="1"><g transform="translate(236.712212, 203.720412)"><g><path d="M 56.851562 -1.523438 L 56.792969 -1.585938 C 55.816406 -2.5625 55.390625 -3.78125 55.390625 -5.246094 L 55.390625 -55.390625 C 55.390625 -56.792969 55.816406 -58.011719 56.792969 -59.050781 L 56.851562 -59.109375 C 57.035156 -59.414062 57.035156 -59.71875 56.914062 -60.085938 C 56.730469 -60.453125 56.425781 -60.636719 56.058594 -60.636719 L 42.578125 -60.636719 C 42.152344 -60.636719 41.847656 -60.453125 41.726562 -60.085938 C 41.542969 -59.71875 41.542969 -59.414062 41.785156 -59.109375 L 41.847656 -59.050781 C 42.761719 -58.011719 43.25 -56.792969 43.25 -55.390625 L 43.25 -25.070312 C 43.25 -24.828125 43.128906 -24.644531 42.882812 -24.582031 C 42.640625 -24.523438 42.457031 -24.582031 42.335938 -24.828125 L 23.242188 -56.914062 C 22.753906 -57.644531 22.875 -58.378906 23.484375 -59.109375 C 23.667969 -59.414062 23.667969 -59.71875 23.546875 -60.085938 C 23.363281 -60.453125 23.058594 -60.636719 22.691406 -60.636719 L 21.046875 -60.636719 L 21.046875 -60.574219 L 21.046875 -60.636719 L 8.296875 -60.636719 C 7.867188 -60.636719 7.5625 -60.453125 7.441406 -60.085938 C 7.257812 -59.71875 7.257812 -59.414062 7.503906 -59.109375 C 8.480469 -58.011719 8.96875 -56.792969 8.96875 -55.449219 L 8.96875 -5.183594 C 8.96875 -3.78125 8.480469 -2.5625 7.503906 -1.523438 C 7.257812 -1.160156 7.257812 -0.855469 7.441406 -0.488281 C 7.5625 -0.121094 7.867188 0 8.296875 0 L 21.777344 0 C 22.144531 0 22.449219 -0.121094 22.632812 -0.488281 C 22.753906 -0.855469 22.753906 -1.160156 22.570312 -1.523438 L 22.449219 -1.648438 C 21.472656 -2.621094 21.046875 -3.84375 21.046875 -5.308594 L 21.046875 -35.5625 C 21.046875 -35.808594 21.105469 -35.929688 21.351562 -35.992188 C 21.59375 -36.050781 21.777344 -35.992188 21.960938 -35.808594 L 41.113281 -3.660156 C 41.480469 -2.867188 41.417969 -2.136719 40.871094 -1.523438 C 40.625 -1.160156 40.625 -0.855469 40.808594 -0.488281 C 40.929688 -0.121094 41.238281 0 41.664062 0 L 56.058594 0 C 56.425781 0 56.730469 -0.121094 56.914062 -0.488281 C 57.035156 -0.855469 57.035156 -1.160156 56.851562 -1.523438 Z M 56.851562 -1.523438 "/></g></g></g><g fill="#000000" fill-opacity="1"><g transform="translate(80.289506, 225.730694)"><g><path d="M 11.636719 0.34375 C 13.007812 0.34375 14.464844 -0.0625 15.449219 -0.707031 L 15.171875 -3.128906 C 14.933594 -3.019531 14.636719 -2.914062 14.355469 -2.914062 C 13.972656 -2.914062 13.777344 -3.214844 13.714844 -3.621094 L 13.628906 -4.5 C 13.542969 -5.335938 13.304688 -5.871094 12.726562 -6.105469 L 12.726562 -6.128906 C 14.976562 -7.027344 16.199219 -8.828125 16.199219 -11.015625 C 16.199219 -13.863281 14.078125 -15.429688 10.222656 -15.429688 L 2.550781 -15.429688 L 0.105469 0 L 5.679688 0 L 6.492188 -5.144531 L 7.242188 -5.144531 C 7.90625 -5.144531 8.140625 -4.605469 8.226562 -3.984375 L 8.378906 -2.570312 C 8.570312 -0.769531 9.792969 0.34375 11.636719 0.34375 Z M 7.027344 -8.570312 L 7.5 -11.570312 L 9.148438 -11.570312 C 10.070312 -11.570312 10.585938 -11.121094 10.585938 -10.328125 C 10.585938 -9.191406 9.898438 -8.570312 8.679688 -8.570312 Z M 7.027344 -8.570312 "/></g></g></g><g fill="#000000" fill-opacity="1"><g transform="translate(105.827253, 225.730694)"><g><path d="M 2.871094 0.214844 C 4.476562 0.214844 5.933594 -0.769531 6.855469 -2.378906 L 6.878906 -2.378906 L 7.308594 0 L 11.335938 0 L 13.09375 -11.140625 L 8.164062 -11.140625 L 7.199219 -5.015625 C 7.070312 -4.242188 6.621094 -3.792969 6.019531 -3.792969 C 5.527344 -3.792969 5.292969 -4.136719 5.398438 -4.734375 L 6.40625 -11.140625 L 1.476562 -11.140625 L 0.191406 -3.019531 C -0.128906 -0.984375 0.898438 0.214844 2.871094 0.214844 Z M 2.871094 0.214844 "/></g></g></g><g fill="#000000" fill-opacity="1"><g transform="translate(127.787542, 225.730694)"><g><path d="M 9.941406 -11.355469 C 8.335938 -11.355469 6.878906 -10.371094 5.957031 -8.765625 L 5.933594 -8.765625 L 5.507812 -11.140625 L 1.476562 -11.140625 L -0.277344 0 L 4.648438 0 L 5.613281 -6.128906 C 5.742188 -6.898438 6.191406 -7.351562 6.792969 -7.351562 C 7.285156 -7.351562 7.519531 -7.007812 7.414062 -6.40625 L 6.40625 0 L 11.335938 0 L 12.621094 -8.121094 C 12.941406 -10.15625 11.914062 -11.355469 9.941406 -11.355469 Z M 9.941406 -11.355469 "/></g></g></g><g fill="#000000" fill-opacity="1"><g transform="translate(149.747832, 225.730694)"><g/></g></g><g fill="#000000" fill-opacity="1"><g transform="translate(162.368175, 225.730694)"><g><path d="M 0.105469 0 L 5.679688 0 L 8.121094 -15.429688 L 2.550781 -15.429688 Z M 0.105469 0 "/></g></g></g><g fill="#000000" fill-opacity="1"><g transform="translate(179.058673, 225.730694)"><g><path d="M 5.933594 0.386719 C 7.328125 0.386719 8.828125 0.0429688 10.15625 -0.621094 L 10.027344 -4.113281 C 9.171875 -3.664062 8.699219 -3.492188 7.90625 -3.492188 C 7.15625 -3.492188 6.558594 -4.050781 6.75 -5.183594 L 7.113281 -7.5 L 10.800781 -7.5 L 11.378906 -11.140625 L 7.691406 -11.140625 L 8.292969 -14.957031 L 3.191406 -13.886719 L 2.765625 -11.140625 L 1.09375 -11.140625 L 0.515625 -7.5 L 2.1875 -7.5 L 1.671875 -4.285156 C 1.222656 -1.371094 2.742188 0.386719 5.933594 0.386719 Z M 5.933594 0.386719 "/></g></g></g><g fill="#000000" fill-opacity="1"><g transform="translate(199.519426, 225.730694)"><g/></g></g><g fill="#000000" fill-opacity="1"><g transform="translate(212.139764, 225.730694)"><g><path d="M 0.105469 0 L 8.871094 0 C 12.707031 0 15.257812 -1.886719 15.257812 -4.714844 C 15.257812 -6.148438 14.421875 -7.351562 12.964844 -7.800781 L 12.964844 -7.84375 C 14.890625 -8.3125 16.136719 -9.984375 16.136719 -11.59375 C 16.136719 -14.011719 14.121094 -15.429688 10.542969 -15.429688 L 2.550781 -15.429688 Z M 7.15625 -9.320312 L 7.5 -11.613281 L 9.277344 -11.613281 C 10.027344 -11.613281 10.476562 -11.25 10.476562 -10.628906 C 10.476562 -9.984375 9.855469 -9.320312 8.933594 -9.320312 Z M 6.277344 -3.8125 L 6.664062 -6.214844 L 8.550781 -6.214844 C 9.300781 -6.214844 9.769531 -5.808594 9.769531 -5.164062 C 9.769531 -4.371094 9.105469 -3.8125 8.164062 -3.8125 Z M 6.277344 -3.8125 "/></g></g></g><g fill="#000000" fill-opacity="1"><g transform="translate(237.120544, 225.730694)"><g><path d="M 3.515625 0.214844 C 5.058594 0.214844 6.320312 -0.601562 7.15625 -2.25 L 7.179688 -2.25 L 7.585938 0 L 11.742188 0 L 13.5 -11.140625 L 9.34375 -11.140625 L 8.226562 -8.847656 L 8.207031 -8.847656 C 7.84375 -10.542969 6.835938 -11.355469 5.355469 -11.355469 C 2.035156 -11.355469 0.171875 -7.542969 0.171875 -3.941406 C 0.171875 -1.308594 1.414062 0.214844 3.515625 0.214844 Z M 6.300781 -3.855469 C 5.613281 -3.855469 5.207031 -4.371094 5.207031 -5.144531 C 5.207031 -6.257812 5.933594 -7.285156 6.835938 -7.285156 C 7.542969 -7.285156 7.929688 -6.769531 7.929688 -6 C 7.929688 -4.886719 7.222656 -3.855469 6.300781 -3.855469 Z M 6.300781 -3.855469 "/></g></g></g><g fill="#000000" fill-opacity="1"><g transform="translate(259.487848, 225.730694)"><g><path d="M 5.378906 0.40625 C 8.828125 0.40625 11.398438 -1.628906 12.105469 -4.800781 L 7.691406 -5.335938 C 7.476562 -4.179688 6.878906 -3.449219 6.171875 -3.449219 C 5.570312 -3.449219 5.183594 -4.007812 5.183594 -4.90625 C 5.183594 -6.085938 5.765625 -7.691406 6.726562 -7.691406 C 7.519531 -7.691406 7.648438 -6.898438 7.519531 -5.871094 L 12.105469 -6.964844 C 12.171875 -9.769531 10.242188 -11.550781 7.136719 -11.550781 C 3.0625 -11.550781 0.214844 -8.398438 0.214844 -4.371094 C 0.214844 -1.4375 2.144531 0.40625 5.378906 0.40625 Z M 5.378906 0.40625 "/></g></g></g><g fill="#000000" fill-opacity="1"><g transform="translate(281.169651, 225.730694)"><g><path d="M -0.277344 0 L 4.648438 0 L 5.164062 -3.277344 L 6.128906 -4.15625 L 7.414062 0 L 12.621094 0 L 9.792969 -7.050781 L 14.378906 -11.140625 L 9 -11.140625 L 5.976562 -8.226562 L 5.957031 -8.226562 L 7.199219 -16.070312 L 2.269531 -16.070312 Z M -0.277344 0 "/></g></g></g></svg>